<?xml version="1.0" standalone="no"?>
<!DOCTYPE svg PUBLIC "-//W3C//DTD SVG 20010904//EN"
 "http://www.w3.org/TR/2001/REC-SVG-20010904/DTD/svg10.dtd">
<svg version="1.0" xmlns="http://www.w3.org/2000/svg"
 width="236.000000pt" height="251.000000pt" viewBox="0 0 236.000000 251.000000"
 preserveAspectRatio="xMidYMid meet">

<g transform="translate(0.000000,251.000000) scale(0.100000,-0.100000)"
fill="#000000" stroke="none">
<path d="M801 1646 c-312 -312 -411 -417 -405 -428 5 -8 28 -31 51 -52 34 -30
45 -35 60 -27 34 19 813 807 813 823 0 15 -82 98 -97 98 -5 0 -194 -186 -422
-414z"/>
<path d="M587 1862 c-103 -103 -187 -192 -187 -197 0 -18 79 -95 98 -95 21 0
382 360 382 381 0 16 -79 99 -95 99 -5 0 -95 -84 -198 -188z"/>
<path d="M1306 1721 c-198 -198 -227 -231 -218 -247 6 -11 76 -83 155 -162
124 -122 148 -142 164 -134 26 15 453 446 453 458 0 5 -23 32 -50 59 l-50 50
-178 -178 c-97 -97 -182 -177 -187 -177 -6 0 -32 22 -59 49 l-48 49 171 168
c94 92 174 176 177 187 4 14 -6 31 -37 63 -24 24 -48 44 -54 44 -5 0 -113
-103 -239 -229z"/>
<path d="M1446 1001 c-387 -388 -409 -411 -399 -434 6 -13 30 -39 52 -56 l41
-33 406 403 c223 222 410 412 415 421 8 14 1 27 -32 63 -23 25 -49 45 -58 45
-9 0 -200 -184 -425 -409z"/>
<path d="M727 1142 c-125 -125 -227 -232 -227 -237 0 -6 20 -30 44 -54 31 -31
49 -41 62 -37 11 3 95 83 189 176 l170 170 52 -52 53 -53 -175 -175 c-96 -96
-175 -182 -175 -191 0 -8 20 -34 44 -58 36 -35 47 -41 62 -33 26 15 454 446
454 458 0 12 -302 314 -315 314 -6 0 -113 -102 -238 -228z"/>
<path d="M1665 790 c-107 -107 -195 -197 -195 -201 0 -11 90 -99 102 -99 13 0
364 345 380 374 8 16 2 27 -41 69 l-51 51 -195 -194z"/>
</g>
</svg>
